<svg xmlns="http://www.w3.org/2000/svg" width="72" height="72" id="imdb"><defs><radialGradient id="a" cx="50%" cy="50%" r="60.585%" fx="50%" fy="50%"><stop offset="0%" stop-color="#FAF3A9"></stop><stop offset="100%" stop-color="#DBA628"></stop></radialGradient></defs><g fill="none" fill-rule="evenodd"><rect width="72" height="72" fill="url(#a)" rx="4"></rect><path fill="#231F1E" d="M16.664 46H12V26h4.664v20zm17.298 0H29.98V34.773L28.054 46h-2.88l-1.976-11.227V46h-4.202V26h6.003l1.56 9.435L27.64 26h6.323v20zm2.462 0V26h5.219c3.107 0 3.862.323 4.75.97.887.646 1.33 1.638 1.33 2.977v12.106c0 1.246-.414 2.216-1.244 2.908-.83.693-1.828 1.039-4.81 1.039h-5.245zm6.294-4.196V30.075c0-.974-1.007-.884-1.804-.884v13.433c.797 0 1.804.126 1.804-.82zm10.973 3.153c-.326-.149-.62 1.043-.62 1.043H49.22V26h4.772v4.579c.48-.568 1.821-1.45 3.122-1.388 1.3.063 3 1.072 2.881 2.75v11.632c0 .818-.342 1.464-1.026 1.938-.547.25-1.014.329-2.156.329-1.141 0-2.794-.734-3.12-.883zm1.61-2.413.004-10.074c0-.492-.217-.739-.65-.739-.443 0-.664.237-.664.712l-.003 10.101c0 .494.22.836.663.836.434 0 .65-.342.65-.836z"></path></g></svg>